<svg width="1024" height="1024" viewBox="0 0 1024 1024" fill="none" xmlns="http://www.w3.org/2000/svg">
<path d="M899.1 869.6L846.1 564H864C878.4 564 890 552.4 890 538V346C890 331.6 878.4 320 864 320H618V138C618 123.6 606.4 112 592 112H432C417.6 112 406 123.6 406 138V320H160C145.6 320 134 331.6 134 346V538C134 552.4 145.6 564 160 564H177.9L124.9 869.6C124.6 871.1 124.5 872.6 124.5 874C124.5 888.4 136.1 900 150.5 900H873.5C875 900 876.5 899.9 877.9 899.6C892.1 897.2 901.6 883.7 899.1 869.6ZM204 390H476V182H548V390H820V494H204V390ZM672 830V674C672 669.6 668.4 666 664 666H616C611.6 666 608 669.6 608 674V830H416V674C416 669.6 412.4 666 408 666H360C355.6 666 352 669.6 352 674V830H202.8L247.9 570H776L821.1 830H672Z" fill="black"/>
</svg>
