<svg width="2268" height="1300" viewBox="0 0 2268 1300" fill="none" xmlns="http://www.w3.org/2000/svg">
<rect width="2268" height="1300" fill="black"/>
<path d="M1521.6 1013.6L1468.6 708H1486.5C1500.9 708 1512.5 696.4 1512.5 682V490C1512.5 475.6 1500.9 464 1486.5 464H1240.5V282C1240.5 267.6 1228.9 256 1214.5 256H1054.5C1040.1 256 1028.5 267.6 1028.5 282V464H782.5C768.1 464 756.5 475.6 756.5 490V682C756.5 696.4 768.1 708 782.5 708H800.4L747.4 1013.6C747.1 1015.1 747 1016.6 747 1018C747 1032.4 758.6 1044 773 1044H1496C1497.5 1044 1499 1043.9 1500.4 1043.6C1514.6 1041.2 1524.1 1027.7 1521.6 1013.6ZM826.5 534H1098.5V326H1170.5V534H1442.5V638H826.5V534ZM1294.5 974V818C1294.5 813.6 1290.9 810 1286.5 810H1238.5C1234.1 810 1230.5 813.6 1230.5 818V974H1038.5V818C1038.5 813.6 1034.9 810 1030.5 810H982.5C978.1 810 974.5 813.6 974.5 818V974H825.3L870.4 714H1398.5L1443.6 974H1294.5Z" fill="white"/>
</svg>
