<svg width="150" height="150" viewBox="0 0 150 150" fill="none" xmlns="http://www.w3.org/2000/svg">
<path d="M126.562 38.0859H106.641L101.895 24.7852C101.567 23.875 100.966 23.0883 100.174 22.5325C99.3822 21.9767 98.4381 21.6788 97.4707 21.6797H52.5293C50.5518 21.6797 48.7793 22.9248 48.1201 24.7852L43.3594 38.0859H23.4375C16.9629 38.0859 11.7188 43.3301 11.7188 49.8047V116.602C11.7188 123.076 16.9629 128.32 23.4375 128.32H126.562C133.037 128.32 138.281 123.076 138.281 116.602V49.8047C138.281 43.3301 133.037 38.0859 126.562 38.0859ZM75 104.883C62.0508 104.883 51.5625 94.3945 51.5625 81.4453C51.5625 68.4961 62.0508 58.0078 75 58.0078C87.9492 58.0078 98.4375 68.4961 98.4375 81.4453C98.4375 94.3945 87.9492 104.883 75 104.883ZM60.9375 81.4453C60.9375 85.1749 62.4191 88.7518 65.0563 91.389C67.6935 94.0262 71.2704 95.5078 75 95.5078C78.7296 95.5078 82.3065 94.0262 84.9437 91.389C87.5809 88.7518 89.0625 85.1749 89.0625 81.4453C89.0625 77.7157 87.5809 74.1389 84.9437 71.5016C82.3065 68.8644 78.7296 67.3828 75 67.3828C71.2704 67.3828 67.6935 68.8644 65.0563 71.5016C62.4191 74.1389 60.9375 77.7157 60.9375 81.4453Z" fill="url(#paint0_linear)"/>
<defs>
<linearGradient id="paint0_linear" x1="12" y1="128" x2="138" y2="40" gradientUnits="userSpaceOnUse">
<stop offset="0.267532" stop-color="#FDC830"/>
<stop offset="1" stop-color="#F37335"/>
</linearGradient>
</defs>
</svg>
